<svg xmlns="http://www.w3.org/2000/svg" width="1200" height="260" viewBox="0 0 1200 260">
  <!-- retro palette: bg #1a1c2c, accents pink/cyan/yellow/green -->
  <rect width="1200" height="260" fill="#1a1c2c"/>
  <rect width="1200" height="260" fill="none" stroke="#3b3f5c" stroke-width="16"/>
  <rect x="20" y="20" width="1160" height="220" fill="none" stroke="#566c86" stroke-width="6"/>

  <!-- pixel gem left -->
  <g>
    <rect x="120" y="96" width="60" height="20" fill="#41a6f6"/>
    <rect x="132" y="116" width="36" height="20" fill="#41a6f6"/>
    <rect x="144" y="136" width="12" height="16" fill="#41a6f6"/>
    <rect x="120" y="96" width="60" height="8" fill="#73eff7"/>
    <rect x="132" y="116" width="12" height="20" fill="#1a6fb0"/>
  </g>
  <!-- pixel gem right -->
  <g>
    <rect x="1020" y="116" width="60" height="20" fill="#ef7d57"/>
    <rect x="1032" y="136" width="36" height="20" fill="#ef7d57"/>
    <rect x="1044" y="156" width="12" height="16" fill="#ef7d57"/>
    <rect x="1020" y="116" width="60" height="8" fill="#ffcd75"/>
    <rect x="1056" y="136" width="12" height="20" fill="#b13e53"/>
  </g>

  <!-- pixel hearts -->
  <g fill="#ef7d57">
    <rect x="940" y="64" width="8" height="8"/><rect x="956" y="64" width="8" height="8"/>
    <rect x="932" y="72" width="40" height="8"/><rect x="940" y="80" width="24" height="8"/>
    <rect x="948" y="88" width="8" height="8"/>
  </g>
  <g fill="#38b764">
    <rect x="240" y="180" width="8" height="8"/><rect x="256" y="180" width="8" height="8"/>
    <rect x="232" y="188" width="40" height="8"/><rect x="240" y="196" width="24" height="8"/>
    <rect x="248" y="204" width="8" height="8"/>
  </g>

  <!-- title -->
  <text x="600" y="138" text-anchor="middle"
    font-family="'Courier New',monospace" font-size="64" font-weight="900"
    letter-spacing="6" fill="#f4f4f4">MINAMI MORIKAWA</text>

  <!-- subtitle -->
  <text x="600" y="186" text-anchor="middle"
    font-family="'Courier New',monospace" font-size="22" font-weight="700"
    letter-spacing="8" fill="#ffcd75">DESIGN x WEB DEV</text>
</svg>
